# xmcd CD database file
#
# Track frame offsets:
#	150
#	26025
#	38785
#	62624
#	75042
#	99873
#	122384
#	131638
#	142027
#	155715
#	159820
#	174124
#	188358
#	203373
#	216718
#	246338
#	255850
#	285073
#	326217
#	342586
#
# Disc length: 4762 seconds
#
# Revision: 0
# Processed by: cddbd v1.4PL0 Copyright (c) Steve Scherf et al.
# Submitted via: CDex 1.50
#
DISCID=03129814
DTITLE=Charlie Parker - Live at the Pershing Hotel
DYEAR=2001
DGENRE=Jazz
TTITLE0=Indiana
TTITLE1=I Can't Get Started
TTITLE2=Anthropology
TTITLE3=Out of Nowhere
TTITLE4=Get Happy
TTITLE5=Hot House
TTITLE6=Embraceable You
TTITLE7=Body and Soul
TTITLE8=Cool Blues
TTITLE9=Stardust
TTITLE10=All the Things You Are
TTITLE11=Billie's Bounce
TTITLE12=Pennies from Heaven
TTITLE13=Pennies From Heaven
TTITLE14=There's a Small Hotel
TTITLE15=These Foolish Things
TTITLE16=Keen And Peachy
TTITLE17=Hot House
TTITLE18=Bird, Bass And Out
TTITLE19=Goodbye
EXTD=YEAR: 2001
EXTT0=
EXTT1=
EXTT2=
EXTT3=
EXTT4=
EXTT5=
EXTT6=
EXTT7=
EXTT8=
EXTT9=
EXTT10=
EXTT11=
EXTT12=
EXTT13=
EXTT14=
EXTT15=
EXTT16=
EXTT17=
EXTT18=
EXTT19=
PLAYORDER=
